PathFileType   4   (X/Y/Z)																																																																																																																	
DataRate	CameraRate	NumFrames	NumMarkers	Units	OrigDataRate	OrigDataStartFrame	OrigNumFrames																																																																																																										
120	120	12	37	mm	120	54	106																																																																																																										
Frame#	Time	midhip	hip_r	hip_l	knee_r	knee_l	ankle_r	ankle_l	midasis	asis_r	asis_l	psis_r	psis_l	epicondLat_r	epicondLat_l	epicondMed_r	epicondMed_l	malleolusLat_r	malleolusLat_l	malleolusMedv_r	malleolusMedv_l	neck	subclavicle_r	subclavicle_l	sternalnotch	xyphoidprocess	thighwand_r	thighwand_l	upperleg1_r	upperleg1_l	upperleg2_r	upperleg2_l	shankwand_r	shankwand_l	lowerleg1_r	lowerleg1_l	toe_r	toe_l																																																																											
 	 	X1	Y1	Z1	X2	Y2	Z2	X3	Y3	Z3	X4	Y4	Z4	X5	Y5	Z5	X6	Y6	Z6	X7	Y7	Z7	X8	Y8	Z8	X9	Y9	Z9	X10	Y10	Z10	X11	Y11	Z11	X12	Y12	Z12	X13	Y13	Z13	X14	Y14	Z14	X15	Y15	Z15	X16	Y16	Z16	X17	Y17	Z17	X18	Y18	Z18	X19	Y19	Z19	X20	Y20	Z20	X21	Y21	Z21	X22	Y22	Z22	X23	Y23	Z23	X24	Y24	Z24	X25	Y25	Z25	X26	Y26	Z26	X27	Y27	Z27	X28	Y28	Z28	X29	Y29	Z29	X30	Y30	Z30	X31	Y31	Z31	X32	Y32	Z32	X33	Y33	Z33	X34	Y34	Z34	X35	Y35	Z35	X36	Y36	Z36	X37	Y37	Z37	

	54	0.55833	1198.956	860.493	-246.995	1204.154	849.134	-194.036	1189.832	844.566	-299.541	1409.516	486.197	-201.98	1047.096	453.966	-330.585	1428.016	70.741	-195.99	747.174	155.13	-330.989	1277.325	941.176	-261.777	1291.137	945.582	-160.029	1263.513	936.771	-363.526	1085.04	973.887	-191.953	1070.981	974.234	-275.949	1415.972	488.557	-142.878	1044.145	459.746	-389.73	1400.191	496.289	-266.083	1052.884	450.474	-277.323	1424.664	71.138	-158.14	740.613	161.767	-369.371	1427.277	71.522	-228.225	760.132	159.825	-302.817	1140.75	1427.763	-252.062	1235.797	1356.039	-164.533	1239.036	1354.933	-323.575	1225.191	1356.913	-248.276	1260.731	1155.094	-252.895	1396.11	583.919	-58.308	1232.832	526.022	-357.929	1393.213	651.983	-124.548	1175.804	610.518	-381.104	1424.278	579.08	-152.856	1138.74	532.128	-378.656	1435.489	147.182	-93.161	899.374	165.601	-342.894	1416.253	201.531	-155.437	883.213	246.937	-342.537	1549.176	43.365	-197.011	799.607	43.738	-323.667
	55	0.56667	1213.66	861.715	-245.397	1219.49	851.195	-191.635	1204.851	845.675	-297.05	1420.312	486.772	-202.209	1068.44	452.12	-330.678	1428.051	70.619	-196.082	762.627	159.75	-332.77	1292.382	942.686	-260.416	1306.476	948	-158.921	1278.287	937.371	-361.911	1099.786	975.852	-191.806	1085.919	975.33	-275.886	1427.079	488.787	-143.129	1064.702	458.461	-389.721	1411.264	497.154	-266.436	1075.637	447.283	-277.503	1425.244	71.124	-158.189	755.598	167.376	-370.884	1427.441	71.657	-228.262	775.812	164.137	-304.777	1155.204	1429.102	-250.654	1250.311	1357.481	-163.185	1254.123	1356.885	-322.227	1240.001	1358.569	-246.967	1276.443	1156.923	-252.086	1408.47	584.322	-58.145	1253.231	526.637	-359.708	1406.242	652.298	-124.266	1194.808	610.125	-381.608	1436.47	579.272	-152.926	1158.927	530.838	-379.252	1438.979	146.785	-93.319	914.536	167.284	-346.905	1419.942	201.865	-155.236	900.184	248.667	-344.819	1549.634	42.878	-197.049	804.499	44.852	-323.69
	56	0.575	1227.959	863.005	-243.851	1234.532	853.544	-189.372	1219.498	847.045	-294.675	1429.856	487.046	-202.121	1090.732	450.16	-330.71	1427.816	70.552	-196.002	779.481	164.371	-334.517	1307.12	944.428	-259.27	1321.567	950.673	-158.081	1292.673	938.184	-360.459	1114.351	978.076	-191.694	1100.648	976.702	-275.842	1436.931	488.762	-143.068	1086.102	457.012	-389.632	1419.776	497.293	-266.194	1099.419	443.115	-277.937	1425.509	71.12	-158.076	772.166	172.842	-372.398	1427.691	71.806	-228.163	792.408	168.702	-306.568	1169.657	1430.679	-249.275	1264.722	1359.124	-161.895	1268.496	1358.833	-320.657	1254.391	1360.357	-245.532	1291.088	1158.767	-251.038	1419.877	584.52	-57.797	1274.034	527.618	-361.639	1418.309	652.369	-123.836	1213.181	609.907	-381.685	1447.16	578.852	-152.809	1179.27	529.92	-379.812	1441.883	146.397	-93.262	930.941	168.907	-350.312	1423.343	202.036	-154.791	918.271	250.376	-346.84	1549.792	42.597	-196.997	810.716	46.742	-323.848
	57	0.58333	1241.949	864.427	-242.402	1249.225	856.072	-187.403	1233.778	848.632	-292.585	1438.347	487.092	-201.782	1113.873	448.216	-330.646	1427.566	70.515	-195.784	797.529	169.158	-336.066	1321.537	946.326	-258.394	1336.35	953.46	-157.53	1306.725	939.192	-359.259	1128.734	980.507	-191.634	1115.161	978.304	-275.821	1445.711	488.565	-142.758	1108.3	455.474	-389.438	1425.991	496.669	-265.367	1123.702	439.865	-277.899	1425.675	71.11	-157.836	790.159	178.246	-373.794	1427.772	71.813	-227.925	810.013	173.341	-308.051	1184.052	1432.531	-247.968	1279.085	1360.957	-160.7	1282.494	1360.829	-319.092	1268.562	1362.284	-244.124	1305.118	1160.677	-249.92	1430.415	584.611	-57.321	1295.131	528.996	-363.56	1429.439	652.309	-123.503	1232.05	610.015	-381.984	1456.475	577.899	-152.646	1199.98	529.272	-380.261	1444.349	145.994	-93.01	948.497	170.505	-352.744	1426.541	201.929	-154.282	937.658	252.13	-348.384	1549.809	42.388	-196.903	818.741	49.517	-324.18
	58	0.59167	1255.741	866.044	-241.083	1263.544	858.677	-185.842	1247.732	850.403	-290.907	1445.959	486.971	-201.258	1137.704	446.437	-330.456	1427.38	70.483	-195.462	816.521	174.227	-337.251	1335.658	948.32	-257.803	1350.794	956.24	-157.238	1320.523	940.4	-358.368	1142.942	983.096	-191.63	1129.464	980.096	-275.824	1453.593	488.27	-142.264	1131.223	453.946	-389.124	1433.044	496.285	-264.313	1148.565	436.922	-277.614	1425.808	71.081	-157.499	809.332	183.65	-374.931	1427.693	71.875	-227.541	828.696	178.086	-309.073	1198.313	1434.573	-246.762	1293.391	1362.906	-159.585	1296.631	1363.007	-317.714	1282.779	1364.354	-242.862	1319.332	1162.755	-248.988	1440.192	584.689	-56.784	1316.432	530.803	-365.233	1440.207	652.294	-122.964	1251.11	610.335	-382.1	1465.637	577.223	-151.995	1221.075	528.914	-380.476	1446.437	145.549	-92.611	967.074	172.15	-353.973	1429.284	201.8	-153.607	958.403	253.681	-349.328	1549.773	42.225	-196.747	829.15	53.166	-324.694
	59	0.6	1269.414	867.887	-239.906	1277.542	861.279	-184.779	1261.489	852.328	-289.752	1452.702	486.682	-200.59	1162.095	444.953	-330.161	1427.229	70.446	-195.061	836.276	179.572	-337.938	1349.571	950.386	-257.488	1364.915	958.941	-157.156	1334.228	941.83	-357.82	1156.98	985.797	-191.679	1143.561	982.036	-275.844	1460.64	487.906	-141.635	1154.824	452.536	-388.726	1439.904	496.475	-263.343	1173.896	434.546	-276.855	1425.881	71.033	-157.089	829.451	189.057	-375.669	1427.65	72.063	-227.099	848.348	183.14	-309.609	1212.479	1436.739	-245.617	1307.651	1364.895	-158.579	1310.926	1365.396	-316.555	1297.057	1366.543	-241.779	1333.785	1164.992	-248.403	1449.361	584.824	-56.229	1337.95	533.058	-366.497	1450.596	652.462	-122.211	1270.415	610.956	-382.035	1474.38	576.86	-151.176	1242.509	528.812	-380.345	1448.133	145.07	-92.095	986.575	173.957	-353.998	1431.575	201.733	-152.774	980.263	255.158	-349.591	1549.707	42.099	-196.525	842.441	57.504	-325.3
	60	0.60833	1283.01	869.958	-238.847	1291.288	863.826	-184.24	1275.173	854.384	-289.16	1458.577	486.248	-199.808	1186.924	443.869	-329.79	1427.114	70.404	-194.615	856.729	185.072	-338.041	1363.363	952.514	-257.413	1378.752	961.53	-157.218	1347.975	943.498	-357.607	1170.836	988.573	-191.771	1157.46	984.086	-275.872	1466.885	487.5	-140.905	1179.038	451.354	-388.288	1443.914	496.706	-262.35	1199.544	432.833	-275.71	1425.887	70.971	-156.639	850.36	194.404	-375.891	1427.716	72.309	-226.655	868.711	188.472	-309.688	1226.655	1439.017	-244.553	1321.844	1366.944	-157.665	1325.206	1367.969	-315.546	1311.295	1368.859	-240.82	1348.171	1167.358	-248.09	1458.027	585.018	-55.678	1359.694	535.757	-367.262	1460.16	652.63	-121.571	1290.013	611.945	-381.773	1481.722	576.261	-150.74	1264.29	529.013	-379.886	1449.422	144.59	-91.48	1006.939	176.01	-353.007	1433.411	201.65	-151.96	1002.886	257.072	-349.127	1549.63	42.001	-196.273	858.975	62.263	-325.841
	61	0.61667	1296.582	872.286	-237.858	1304.794	866.293	-184.122	1288.766	856.537	-289.027	1463.726	485.745	-198.958	1212.046	443.257	-329.347	1427.044	70.36	-194.161	877.882	190.535	-337.531	1377.022	954.68	-257.509	1392.326	963.995	-157.347	1361.719	945.366	-357.67	1184.478	991.386	-191.866	1171.165	986.216	-275.901	1472.436	487.089	-140.115	1203.756	450.501	-387.82	1447.849	496.57	-261.23	1225.146	431.859	-273.951	1425.837	70.906	-156.184	871.974	199.577	-375.525	1427.87	72.58	-226.188	889.694	193.805	-309.209	1240.76	1441.328	-243.615	1335.923	1369.095	-156.854	1339.34	1370.634	-314.599	1325.402	1371.269	-239.941	1362.456	1169.825	-247.851	1466.216	585.216	-55.125	1381.615	538.884	-367.462	1468.928	652.636	-121.185	1309.915	613.239	-381.252	1488.598	575.654	-150.367	1286.198	529.291	-378.965	1450.339	144.129	-90.81	1028.131	178.318	-351.261	1434.932	201.578	-151.146	1025.784	259.527	-347.955	1549.559	41.918	-196.017	878.92	67.179	-326.19
	62	0.625	1310.03	874.721	-236.92	1318.046	868.684	-184.262	1302.165	858.759	-289.174	1468.307	485.232	-198.096	1237.336	443.14	-328.838	1426.988	70.316	-193.731	899.78	195.728	-336.429	1390.487	956.856	-257.697	1405.659	966.338	-157.475	1375.316	947.375	-357.919	1197.921	994.197	-191.929	1184.696	988.415	-275.925	1477.415	486.681	-139.315	1228.849	450.046	-387.323	1452.813	496.28	-260.256	1250.811	431.502	-272.108	1425.729	70.841	-155.755	894.271	204.414	-374.566	1427.881	72.805	-225.717	911.523	198.975	-308.09	1254.792	1443.663	-242.79	1350.011	1371.243	-156.19	1353.325	1373.302	-313.741	1339.434	1373.683	-239.168	1376.624	1172.292	-247.764	1473.946	585.352	-54.578	1403.666	542.43	-367.125	1477.11	652.476	-120.916	1330.197	614.892	-380.575	1495.479	575.182	-149.961	1308.522	529.885	-377.851	1450.965	143.697	-90.147	1050.167	180.831	-349.011	1436.282	201.514	-150.344	1048.803	262.395	-346.381	1549.503	41.844	-195.778	902.143	72.004	-326.288
	63	0.63333	1323.097	876.95	-236.021	1331.03	871.007	-184.499	1315.272	861.031	-289.425	1472.438	484.737	-197.248	1262.703	443.516	-328.274	1426.926	70.276	-193.338	922.512	200.404	-334.796	1403.702	959.017	-257.9	1418.773	968.558	-157.542	1388.631	949.476	-358.258	1211.208	996.977	-191.956	1198.078	990.676	-275.94	1481.925	486.272	-138.53	1254.189	450.034	-386.8	1457.258	496.21	-259.479	1276.706	431.162	-271.824	1425.585	70.781	-155.365	917.307	208.713	-373.06	1427.732	72.943	-225.262	934.377	203.829	-306.42	1268.791	1446.02	-242.006	1364.128	1373.289	-155.673	1367.257	1375.951	-313.06	1353.454	1376.043	-238.549	1390.686	1174.696	-247.961	1481.237	585.385	-54.063	1425.808	546.392	-366.363	1484.896	652.249	-120.607	1350.805	616.913	-379.873	1501.909	574.676	-149.647	1331.724	531.437	-377.305	1451.413	143.297	-89.547	1073.117	183.441	-346.437	1437.464	201.441	-149.628	1072.548	265.495	-344.725	1549.466	41.774	-195.567	928.205	76.503	-326.162
	64	0.64167	1335.836	878.994	-235.22	1343.747	873.258	-184.73	1328.05	863.34	-289.67	1476.22	484.276	-196.422	1288.096	444.377	-327.669	1426.86	70.252	-192.997	946.18	204.359	-332.703	1416.651	961.141	-258.053	1431.692	970.643	-157.502	1401.611	951.638	-358.605	1224.357	999.696	-191.954	1211.324	992.995	-275.948	1486.048	485.86	-137.761	1279.667	450.494	-386.25	1461.249	496.027	-258.631	1302.231	431.236	-272.282	1425.443	70.735	-155.026	941.184	212.281	-371.076	1427.593	73.05	-224.864	958.08	207.994	-304.252	1282.758	1448.35	-241.246	1378.135	1375.299	-155.311	1381.085	1378.529	-312.509	1367.367	1378.357	-238.074	1404.523	1177.034	-248.261	1488.108	585.301	-53.564	1448.016	550.77	-365.341	1492.32	652.005	-120.384	1371.544	619.245	-379.246	1507.922	574.055	-149.351	1355.104	533.596	-377.057	1451.812	142.941	-89.029	1097.044	185.972	-343.621	1438.538	201.394	-148.985	1097.254	268.382	-342.949	1549.449	41.704	-195.391	956.479	80.484	-325.875
	65	0.65	1348.556	881.13	-234.611	1356.241	875.421	-184.908	1340.531	865.668	-289.862	1479.75	483.86	-195.629	1313.481	445.694	-327.023	1426.792	70.256	-192.714	970.811	207.462	-330.245	1429.373	963.209	-258.119	1444.455	972.573	-157.361	1414.29	953.845	-358.878	1237.376	1002.319	-191.927	1224.457	995.366	-275.959	1489.859	485.443	-137.016	1305.177	451.417	-385.662	1464.992	495.786	-257.831	1326.776	431.85	-273.42	1425.321	70.712	-154.745	965.949	214.976	-368.718	1427.532	73.2	-224.56	982.679	211.071	-301.716	1296.725	1450.619	-240.53	1392.097	1377.362	-155.14	1394.789	1381.051	-312.105	1381.194	1380.666	-237.762	1418.245	1179.358	-248.604	1494.57	585.102	-53.079	1470.24	555.552	-364.246	1499.562	651.657	-120.235	1392.341	621.909	-378.758	1513.653	573.274	-149.079	1378.206	536.221	-377.128	1452.224	142.637	-88.588	1121.962	188.242	-340.592	1439.565	201.394	-148.439	1122.668	270.756	-340.948	1549.449	41.637	-195.253	986.356	83.848	-325.487
